<?xml version="1.0" encoding="UTF-8"?>
<svg width="800" height="800" viewBox="0 0 800 800" xmlns="http://www.w3.org/2000/svg">
    <defs>
        <!-- Tulip pattern -->
        <g id="tulip">
            <!-- Petals -->
            <path d="M0,-5 C-8,-5 -15,-20 -15,-35 C-15,-50 0,-55 15,-55 C30,-55 45,-50 45,-35 C45,-20 35,-5 30,-5 C25,-5 20,-15 15,-25 C10,-15 5,-5 0,-5 Z" 
                  fill="#FFB3BA" stroke="#E6A3A9" stroke-width="1">
                <animate attributeName="d" dur="8s" repeatCount="indefinite" values="
                    M0,-5 C-8,-5 -15,-20 -15,-35 C-15,-50 0,-55 15,-55 C30,-55 45,-50 45,-35 C45,-20 35,-5 30,-5 C25,-5 20,-15 15,-25 C10,-15 5,-5 0,-5;
                    M0,-5 C-8,-5 -18,-20 -18,-35 C-18,-50 0,-58 15,-58 C30,-58 48,-50 48,-35 C48,-20 38,-5 33,-5 C28,-5 20,-15 15,-25 C10,-15 5,-5 0,-5;
                    M0,-5 C-8,-5 -15,-20 -15,-35 C-15,-50 0,-55 15,-55 C30,-55 45,-50 45,-35 C45,-20 35,-5 30,-5 C25,-5 20,-15 15,-25 C10,-15 5,-5 0,-5"
                />
            </path>
            <!-- Stem and Leaf -->
            <path d="M15,-5 Q15,15 15,30" stroke="#4A7C59" stroke-width="2" fill="none"/>
            <path d="M15,15 Q25,20 15,25 Q5,20 15,15" fill="#4A7C59"/>
        </g>
        
        <!-- Dandelion pattern -->
        <g id="dandelion">
            <!-- Center -->
            <circle cx="0" cy="0" r="6" fill="#FFEB99">
                <animate attributeName="r" dur="4s" repeatCount="indefinite" values="6;6.5;6"/>
            </circle>
            
            <!-- Seeds -->
            <g id="seeds">
                <g transform="rotate(0)">
                    <path d="M0,0 Q8,0 16,0" stroke="#FFF7CC" stroke-width="1.5">
                        <animate attributeName="d" dur="5s" repeatCount="indefinite" values="
                            M0,0 Q8,0 16,0;
                            M0,0 Q8,-2 16,0;
                            M0,0 Q8,0 16,0"
                        />
                    </path>
                    <circle cx="16" cy="0" r="1" fill="#FFFFFF"/>
                </g>
            </g>
            
            <!-- Duplicate and rotate the seed pattern -->
            <use href="#seeds" transform="rotate(30)"/>
            <use href="#seeds" transform="rotate(60)"/>
            <use href="#seeds" transform="rotate(90)"/>
            <use href="#seeds" transform="rotate(120)"/>
            <use href="#seeds" transform="rotate(150)"/>
            <use href="#seeds" transform="rotate(180)"/>
            <use href="#seeds" transform="rotate(210)"/>
            <use href="#seeds" transform="rotate(240)"/>
            <use href="#seeds" transform="rotate(270)"/>
            <use href="#seeds" transform="rotate(300)"/>
            <use href="#seeds" transform="rotate(330)"/>
            
            <!-- Stem -->
            <path d="M0,6 C0,15 0,25 0,35" stroke="#4A7C59" stroke-width="1.5" fill="none">
                <animate attributeName="d" dur="6s" repeatCount="indefinite" values="
                    M0,6 C0,15 0,25 0,35;
                    M0,6 C2,15 -2,25 0,35;
                    M0,6 C0,15 0,25 0,35"
                />
            </path>
        </g>
    </defs>
    
    <!-- Background pattern -->
    <rect width="100%" height="100%" fill="#FFFFF8"/>
    
    <!-- Flower pattern -->
    <g opacity="0.15">
        <!-- First row -->
        <use href="#tulip" transform="translate(100,100) scale(0.8) rotate(15)"/>
        <use href="#dandelion" transform="translate(250,150) scale(0.9)"/>
        <use href="#tulip" transform="translate(400,100) scale(0.85) rotate(-10)"/>
        <use href="#dandelion" transform="translate(550,150) scale(0.95)"/>
        <use href="#tulip" transform="translate(700,100) scale(0.8) rotate(20)"/>
        
        <!-- Second row -->
        <use href="#dandelion" transform="translate(150,300) scale(0.85)"/>
        <use href="#tulip" transform="translate(300,250) scale(0.9) rotate(-15)"/>
        <use href="#dandelion" transform="translate(450,300) scale(0.8)"/>
        <use href="#tulip" transform="translate(600,250) scale(0.85) rotate(10)"/>
        
        <!-- Third row -->
        <use href="#tulip" transform="translate(100,400) scale(0.9) rotate(20)"/>
        <use href="#dandelion" transform="translate(250,450) scale(0.95)"/>
        <use href="#tulip" transform="translate(400,400) scale(0.8) rotate(-5)"/>
        <use href="#dandelion" transform="translate(550,450) scale(0.85)"/>
        <use href="#tulip" transform="translate(700,400) scale(0.9) rotate(15)"/>
        
        <!-- Fourth row -->
        <use href="#dandelion" transform="translate(150,600) scale(0.9)"/>
        <use href="#tulip" transform="translate(300,550) scale(0.85) rotate(-20)"/>
        <use href="#dandelion" transform="translate(450,600) scale(0.95)"/>
        <use href="#tulip" transform="translate(600,550) scale(0.8) rotate(5)"/>
        
        <!-- Fifth row -->
        <use href="#tulip" transform="translate(100,700) scale(0.85) rotate(10)"/>
        <use href="#dandelion" transform="translate(250,750) scale(0.8)"/>
        <use href="#tulip" transform="translate(400,700) scale(0.9) rotate(-15)"/>
        <use href="#dandelion" transform="translate(550,750) scale(0.95)"/>
        <use href="#tulip" transform="translate(700,700) scale(0.85) rotate(20)"/>
    </g>

    <!-- Add some floating particles for a dreamy effect -->
    <g opacity="0.1">
        <circle cx="150" cy="200" r="2">
            <animate attributeName="cy" dur="15s" values="200;180;200" repeatCount="indefinite"/>
        </circle>
        <circle cx="450" cy="300" r="1.5">
            <animate attributeName="cy" dur="12s" values="300;285;300" repeatCount="indefinite"/>
        </circle>
        <circle cx="650" cy="500" r="2">
            <animate attributeName="cy" dur="18s" values="500;480;500" repeatCount="indefinite"/>
        </circle>
    </g>
</svg>
